<svg width="17" height="17" viewBox="0 0 17 17" fill="none" xmlns="http://www.w3.org/2000/svg">
<path d="M13.447 3.44568H2.94472C2.48064 3.44618 2.03571 3.63075 1.70756 3.9589C1.37941 4.28705 1.19483 4.73198 1.19434 5.19606V12.6977C1.19483 13.1618 1.37941 13.6067 1.70756 13.9349C2.03571 14.263 2.48064 14.4476 2.94472 14.4481H13.447C13.9111 14.4476 14.356 14.263 14.6842 13.9349C15.0123 13.6067 15.1969 13.1618 15.1974 12.6977V5.19606C15.1969 4.73198 15.0123 4.28705 14.6842 3.9589C14.356 3.63075 13.9111 3.44618 13.447 3.44568ZM13.0038 6.341L8.5028 9.84176C8.41503 9.90999 8.30703 9.94703 8.19586 9.94703C8.08469 9.94703 7.97669 9.90999 7.88892 9.84176L3.38794 6.341C3.33506 6.30106 3.29064 6.25101 3.25726 6.19376C3.22389 6.13651 3.20223 6.0732 3.19354 6.00751C3.18484 5.94181 3.18929 5.87504 3.20663 5.81108C3.22396 5.74712 3.25384 5.68725 3.29451 5.63493C3.33519 5.58262 3.38585 5.53891 3.44357 5.50634C3.50128 5.47378 3.56489 5.45301 3.6307 5.44524C3.69652 5.43747 3.76321 5.44286 3.82692 5.4611C3.89063 5.47933 3.95008 5.51004 4.00182 5.55145L8.19586 8.81341L12.3899 5.55145C12.4948 5.47225 12.6266 5.43752 12.7569 5.45476C12.8872 5.47199 13.0054 5.53982 13.0861 5.64357C13.1668 5.74732 13.2033 5.87865 13.1879 6.00916C13.1725 6.13967 13.1064 6.25888 13.0038 6.341Z" fill="#44403C"/>
</svg>
