<svg width="17" height="17" viewBox="0 0 17 17" fill="none" xmlns="http://www.w3.org/2000/svg">
<path d="M14.6519 7.09611C14.9442 6.80382 15.1252 6.49933 15.1893 6.1911C15.2737 5.78627 15.149 5.39237 14.8385 5.08195L11.4767 1.72074C11.0347 1.27902 10.2753 1.09614 9.46253 1.90674L9.40001 1.96926C9.37676 1.99249 9.35831 2.02007 9.34572 2.05043C9.33314 2.08079 9.32666 2.11334 9.32666 2.1462C9.32666 2.17907 9.33314 2.21161 9.34572 2.24197C9.35831 2.27233 9.37676 2.29992 9.40001 2.32314L14.2343 7.15864C14.2575 7.18208 14.2852 7.20068 14.3156 7.21338C14.3461 7.22607 14.3788 7.23261 14.4118 7.23261C14.4448 7.23261 14.4775 7.22607 14.508 7.21338C14.5385 7.20068 14.5661 7.18208 14.5894 7.15864L14.6519 7.09611Z" fill="white"/>
<path d="M8.02887 5.12851L8.02387 5.20165C8.0073 5.42607 7.80882 5.80022 7.59003 6.0187L1.6878 11.92C1.34023 12.2672 1.17332 12.7192 1.21739 13.1921C1.25708 13.6147 1.46557 14.0342 1.80439 14.3727L2.18479 14.7531C2.57894 15.1469 3.0531 15.347 3.51289 15.347C3.72272 15.3465 3.93035 15.3042 4.12358 15.2223C4.31681 15.1405 4.49175 15.021 4.63813 14.8706L10.5407 8.96934C10.7617 8.74836 11.1295 8.55363 11.3587 8.53581C11.905 8.49455 12.7205 8.43329 13.4776 8.04664C13.495 8.03762 13.51 8.02463 13.5215 8.00871C13.533 7.99279 13.5405 7.97439 13.5436 7.955C13.5466 7.93562 13.5451 7.91579 13.539 7.89712C13.533 7.87845 13.5226 7.86147 13.5088 7.84754L8.70246 3.04149C8.68853 3.02754 8.67151 3.01708 8.65277 3.01096C8.63403 3.00485 8.61411 3.00325 8.59464 3.00629C8.57516 3.00934 8.55669 3.01695 8.54071 3.0285C8.52474 3.04005 8.51172 3.05521 8.50272 3.07275C8.12389 3.79134 8.07076 4.53901 8.02887 5.12851ZM7.71787 9.71795C7.63638 9.81806 7.5259 9.8905 7.40159 9.92531C7.27728 9.96012 7.14525 9.95559 7.02362 9.91235C6.90199 9.86911 6.79672 9.78927 6.72229 9.6838C6.64785 9.57834 6.60789 9.45242 6.60789 9.32333C6.60789 9.19424 6.64785 9.06832 6.72229 8.96285C6.79672 8.85739 6.90199 8.77755 7.02362 8.73431C7.14525 8.69107 7.27728 8.68654 7.40159 8.72135C7.5259 8.75616 7.63638 8.82859 7.71787 8.92871C7.80861 9.04021 7.85816 9.17957 7.85816 9.32333C7.85816 9.46709 7.80861 9.60645 7.71787 9.71795Z" fill="white"/>
</svg>
