<svg width="17" height="17" viewBox="0 0 17 17" fill="none" xmlns="http://www.w3.org/2000/svg">
<path d="M8.1689 2.38879C4.57843 2.38879 1.66748 5.29974 1.66748 8.89021C1.66748 12.4807 4.57843 15.3916 8.1689 15.3916C11.7594 15.3916 14.6703 12.4807 14.6703 8.89021C14.6703 5.29974 11.7594 2.38879 8.1689 2.38879Z" stroke="#44403C" stroke-width="1.00189" stroke-miterlimit="10"/>
<path d="M8.16868 2.38855C6.35359 2.38855 4.64697 5.2995 4.64697 8.88997C4.64697 12.4804 6.35359 15.3914 8.16868 15.3914C9.98376 15.3914 11.6904 12.4804 11.6904 8.88997C11.6904 5.2995 9.98376 2.38855 8.16868 2.38855Z" stroke="#44403C" stroke-width="1.00189" stroke-miterlimit="10"/>
<path d="M3.83423 4.68103C5.02949 5.52965 6.53419 6.0357 8.16861 6.0357C9.80303 6.0357 11.3077 5.52965 12.503 4.68103" stroke="#44403C" stroke-width="1.00189" stroke-linecap="round" stroke-linejoin="round"/>
<path d="M12.503 13.0995C11.3077 12.2509 9.80303 11.7449 8.16861 11.7449C6.53419 11.7449 5.02949 12.2509 3.83423 13.0995" stroke="#44403C" stroke-width="1.00189" stroke-linecap="round" stroke-linejoin="round"/>
<path d="M8.16895 2.38855V15.3914" stroke="#44403C" stroke-width="1.00189" stroke-miterlimit="10"/>
<path d="M14.6701 8.89014H1.66724" stroke="#44403C" stroke-width="1.00189" stroke-miterlimit="10"/>
</svg>
